<svg xmlns="http://www.w3.org/2000/svg" viewBox="0 0 32 32" fill="none">
  <rect width="32" height="32" rx="8" fill="#FF6600"/>
  <path d="M8 22V10h5.5c2.5 0 4 1.2 4 3.2 0 1.2-.6 2.1-1.6 2.6 1.3.4 2.1 1.5 2.1 2.9 0 2.2-1.6 3.3-4.3 3.3H8zm2.5-7.3h2.7c1.1 0 1.8-.5 1.8-1.5s-.7-1.5-1.8-1.5h-2.7v3zm0 5h2.9c1.3 0 2-.6 2-1.7s-.7-1.7-2-1.7h-2.9v3.4zM22 22l-3.5-5.2H17V22h-2.5V10H18c2.8 0 4.5 1.5 4.5 3.8 0 1.8-1 3-2.6 3.5L24 22h-2z" fill="white"/>
  <path d="M17 14.8h1c1.3 0 2-.6 2-1.8s-.7-1.8-2-1.8h-1v3.6z" fill="white"/>
</svg>
